<svg width="200" height="64" viewBox="0 0 200 64" fill="none" xmlns="http://www.w3.org/2000/svg">
  <!-- 메이플인력소 로고 - 숨고 스타일 기하학적 타이포 -->
  <defs>
    <linearGradient id="orangeGrad" x1="0%" y1="0%" x2="100%" y2="100%">
      <stop offset="0%" stop-color="#FF6B35"/>
      <stop offset="50%" stop-color="#F97316"/>
      <stop offset="100%" stop-color="#EA580C"/>
    </linearGradient>
  </defs>

  <!-- "인" 글자 -->
  <g fill="url(#orangeGrad)" transform="translate(0, 4)">
    <!-- ㅇ -->
    <circle cx="18" cy="16" r="10" stroke="url(#orangeGrad)" stroke-width="6" fill="none"/>
    <!-- ㅣ -->
    <rect x="36" y="4" width="7" height="52" rx="1.5"/>
    <!-- ㄴ -->
    <rect x="6" y="32" width="7" height="24" rx="1.5"/>
    <rect x="6" y="49" width="26" height="7" rx="1.5"/>
  </g>

  <!-- "력" 글자 -->
  <g fill="url(#orangeGrad)" transform="translate(52, 4)">
    <!-- ㄹ -->
    <rect x="4" y="4" width="24" height="6" rx="1"/>
    <rect x="22" y="4" width="6" height="16" rx="1"/>
    <rect x="4" y="14" width="24" height="6" rx="1"/>
    <rect x="4" y="14" width="6" height="16" rx="1"/>
    <rect x="4" y="24" width="24" height="6" rx="1"/>
    <!-- ㅕ -->
    <rect x="4" y="34" width="5" height="22" rx="1"/>
    <rect x="4" y="42" width="14" height="5" rx="1"/>
    <rect x="13" y="34" width="5" height="22" rx="1"/>
    <!-- ㄱ -->
    <rect x="22" y="34" width="16" height="5" rx="1"/>
    <rect x="33" y="34" width="5" height="22" rx="1"/>
  </g>

  <!-- "소" 글자 -->
  <g fill="url(#orangeGrad)" transform="translate(104, 4)">
    <!-- ㅅ -->
    <polygon points="20,4 26,4 38,28 32,28"/>
    <polygon points="20,4 14,4 2,28 8,28"/>
    <!-- ㅗ -->
    <rect x="16" y="34" width="6" height="12" rx="1"/>
    <rect x="4" y="42" width="32" height="6" rx="1"/>
    <!-- 아래 ㅡ -->
    <rect x="4" y="52" width="32" height="6" rx="1"/>
  </g>
</svg>
